 http://www.shotpix.com/images/54446824345396304897.jpg


 
http://www.imdb.com/title/tt1838475/


[b]Plot:Charlie Rankin, recently released from prison, seeks vengeance for his jail-house mentor William "The Buddha" Pettigrew. Along the way, he meets the ethereal, yet streetwise, Florence Jane. They embark on a unlikely road trip, careening towards an unlikely redemption and uncertain resolution.
 


Director: 
David Jacobson

 Writer: 
Matthew F. Jones (screenplay)
 
Stars:
 Stephen Dorff, Michelle Monaghan and Willem Dafoe 

Country:
USA 

Language:
English [/b]




Format                                   : AVI
Format/Info                              : Audio Video Interleave
Format profile                           : OpenDML
Format settings                          : rec
File size                                : 700 MiB
Duration                                 : 1h 27mn
Overall bit rate mode                    : Variable
Overall bit rate                         : 1 114 Kbps
Writing application                      : AVI-Mux GUI 1.17.8.3, Feb 16 201019:42:50

Video
ID                                       : 0
Format                                   : MPEG-4 Visual
Format profile                           : Advanced Simple@L5
Format settings, BVOP                    : 1
Format settings, QPel                    : No
Format settings, GMC                     : No warppoints
Format settings, Matrix                  : Default (H.263)
Muxing mode                              : Packed bitstream
Codec ID                                 : XVID
Codec ID/Hint                            : XviD
Duration                                 : 1h 27mn
Bit rate                                 : 974 Kbps
Width                                    : 640 pixels
Height                                   : 352 pixels
Display aspect ratio                     : 16:9
Frame rate                               : 25.000 fps
Color space                              : YUV
Chroma subsampling                       : 4:2:0
Bit depth                                : 8 bits
Scan type                                : Progressive
Compression mode                         : Lossy
Bits/(Pixel*Frame)                       : 0.173
Stream size                              : 612 MiB (87%)
Writing library                          : XviD 1.2.1 (UTC 2008-12-04)

Audio
ID                                       : 1
Format                                   : MPEG Audio
Format version                           : Version 1
Format profile                           : Layer 3
Mode                                     : Joint stereo
Mode extension                           : MS Stereo
Codec ID                                 : 55
Codec ID/Hint                            : MP3
Duration                                 : 1h 27mn
Bit rate mode                            : Variable
Bit rate                                 : 131 Kbps
Nominal bit rate                         : 145 Kbps
Channel(s)                               : 2 channels
Sampling rate                            : 48.0 KHz
Compression mode                         : Lossy
Stream size                              : 82.6 MiB (12%)
Alignment                                : Aligned on interleaves
Interleave, duration                     : 24 ms (0.60 video frame)
Interleave, preload duration             : 198 ms
Title                                    : index T80 3_2ch 448Kbps DELAY 0ms
Writing library                          : LAME3.99r
Encoding settings                        : -m j -V 4 -q 2 -lowpass 17.5 --abr 145



 
http://www.shotpix.com/images/44750432128355728165.png
 
http://www.shotpix.com/images/28524241471774061629.png
 
http://www.shotpix.com/images/44997772976116510617.png
 
http://www.shotpix.com/images/54744962514559113599.png